<?xml version="1.0"?>
<svg xmlns="http://www.w3.org/2000/svg" id="Layer_1" data-name="Layer 1" viewBox="0 0 512 512" width="512" height="512"><path d="M266.32,120.251l-9.6,3.49a6,6,0,1,0,4.1,11.278l9.6-3.49a6,6,0,0,0-4.1-11.278Z"/><path d="M238.749,130.281,165.289,157a6,6,0,1,0,4.1,11.278l73.46-26.72a6,6,0,1,0-4.1-11.278Z"/><path d="M387.27,159.29H377.176A409.3,409.3,0,0,0,352.5,61.328a6,6,0,0,0-7.644-3.467L139.282,132.64H50.37a44.092,44.092,0,0,0-44,43.83v66.176a44.091,44.091,0,0,0,44,43.814h1.68V448.5a6,6,0,0,0,7.5,5.809l73.1-18.92a6,6,0,0,0,4.5-5.809V286.46h2.132l205.577,74.779a5.994,5.994,0,0,0,7.644-3.467A409.566,409.566,0,0,0,377.176,259.8H387.27a50.255,50.255,0,0,0,0-100.51ZM125.15,393.75H102.09V310.84h23.06Zm0-94.91H96.09a6,6,0,0,0-6,6v94.91a6,6,0,0,0,6,6h29.06v19.186L64.05,440.75V286.46h61.1Zm9.19-24.38H50.37a32.085,32.085,0,0,1-31.4-25.84H134.34Zm0-37.84H18.37V215.55H134.34Zm0-33.07H18.37V182.47H134.34Zm0-33.08H18.975A32.083,32.083,0,0,1,50.37,144.64h83.97Zm231.547,82.618v.006A397.358,397.358,0,0,1,343.4,347.939L304.242,333.7a411.559,411.559,0,0,0,15.575-179.146,6,6,0,0,0-11.891,1.613,399.5,399.5,0,0,1-14.973,173.427L146.34,276.258V142.842L292.956,89.511A398.9,398.9,0,0,1,303.6,130.573a6,6,0,1,0,11.76-2.386,410.708,410.708,0,0,0-11.12-42.781L343.4,71.161A397.153,397.153,0,0,1,365.887,166a396.649,396.649,0,0,1,2.4,43.549A396.531,396.531,0,0,1,365.887,253.088Zm48.43-16.491a38,38,0,0,1-27.047,11.2h-8.784c1.194-12.677,1.8-25.512,1.8-38.25s-.61-25.585-1.8-38.26h8.784A38.257,38.257,0,0,1,414.317,236.6Z"/><path d="M499.63,203.55H449.81a6,6,0,0,0,0,12h49.82a6,6,0,0,0,0-12Z"/><path d="M433.446,169.391a5.968,5.968,0,0,0,3.035-.829l45.99-27.04a6,6,0,0,0-6.082-10.344l-45.99,27.04a6,6,0,0,0,3.047,11.173Z"/><path d="M481.343,278.433l-45.99-25.08a6,6,0,1,0-5.746,10.535l45.99,25.08a6,6,0,1,0,5.746-10.535Z"/></svg>
