<svg id="Layer_1" height="512" viewBox="0 0 512 512" width="512" xmlns="http://www.w3.org/2000/svg" data-name="Layer 1"><path d="m442.83 78.33h-29.02v-33.64a27.041 27.041 0 0 0 -27.01-27.01h-261.6a27.041 27.041 0 0 0 -27.01 27.01v33.64h-29.02a36.04 36.04 0 0 0 -36 36v239.24a36.041 36.041 0 0 0 36 36h118.819l-10.124 64.75h-10.885a20 20 0 1 0 0 40h178.04a20 20 0 1 0 0-40h-9.885l-10.124-64.75h117.819a36.041 36.041 0 0 0 36-36v-239.24a36.04 36.04 0 0 0 -36-36zm-332.64-33.64a15.028 15.028 0 0 1 15.01-15.01h261.6a15.028 15.028 0 0 1 15.01 15.01v228.27a15.032 15.032 0 0 1 -15.01 15.02h-261.6a15.032 15.032 0 0 1 -15.01-15.02zm234.83 421.63a8 8 0 0 1 0 16h-178.04a8 8 0 1 1 0-16zm-155.009-12 10.124-64.75h112.73l10.124 64.75zm276.819-133.08h-352.182a6 6 0 0 0 0 12h352.182v20.33a24.027 24.027 0 0 1 -24 24h-373.66a24.027 24.027 0 0 1 -24-24v-20.33h38.5a6 6 0 0 0 0-12h-38.5v-206.91a24.027 24.027 0 0 1 24-24h29.02v182.63a27.046 27.046 0 0 0 27.01 27.02h261.6a27.046 27.046 0 0 0 27.01-27.02v-182.63h29.02a24.027 24.027 0 0 1 24 24z"/><path d="m245 362h22a6 6 0 0 0 0-12h-22a6 6 0 0 0 0 12z"/><path d="m67 154.48a6 6 0 0 0 -6 6v102.96a6 6 0 0 0 12 0v-102.96a6 6 0 0 0 -6-6z"/><path d="m67 124.52a6 6 0 0 0 -6 6v6.96a6 6 0 0 0 12 0v-6.96a6 6 0 0 0 -6-6z"/><path d="m152.356 185.244a30.91 30.91 0 0 0 8.81-1.287l23.562 31.643a6 6 0 0 0 4.811 2.417c.095 0 .19 0 .284-.007a6 6 0 0 0 4.846-2.88l12.93-21.3a6 6 0 0 0 -.317-6.695l-15.738-21.135 70.425-21.988a6 6 0 0 0 3.994-7.324 148.834 148.834 0 0 0 -12.4-30.9l.149-.112a21.748 21.748 0 0 0 8.728-17.386 21.66 21.66 0 0 0 -34.592-17.363l-.153.113a148.536 148.536 0 0 0 -26.037-20.74 6 6 0 0 0 -8.162 1.727l-44.358 65.743-15.372 11.441a31.259 31.259 0 0 0 -12.526 24.959 31.092 31.092 0 0 0 31.116 31.074zm42.888 5.817-6.211 10.231-17.107-22.977 8.9-6.621zm53.281-108.53a9.649 9.649 0 0 1 -1.144 12.818c-1.743-2.691-3.565-5.335-5.469-7.892s-3.919-5.067-5.989-7.5a9.676 9.676 0 0 1 12.602 2.574zm-48.4-18.883a137.261 137.261 0 0 1 32.158 30.976 134.865 134.865 0 0 1 8.281 12.522v.008a136.524 136.524 0 0 1 12.161 27.166l-6.827 2.132a149.746 149.746 0 0 0 -49.779-66.874zm-10.725 15.901a137.658 137.658 0 0 1 45.026 60.487l-48.653 15.189-24.88-33.425zm-48.468 59.284 11.378-8.467 22.79 30.624-11.376 8.467a19.661 19.661 0 0 1 -3.066 1.87 19.092 19.092 0 0 1 -19.73-32.494z"/><path d="m371.45 207.06h-9.35a6 6 0 0 0 0 12h9.35a6 6 0 0 0 0-12z"/><path d="m286.42 219.06h56.58a6 6 0 0 0 0-12h-56.58a6 6 0 0 0 0 12z"/><path d="m376.4 185.92a6 6 0 0 0 -6-6h-52.72a6 6 0 0 0 0 12h52.72a6 6 0 0 0 6-6z"/><path d="m286.42 191.92h12.16a6 6 0 0 0 0-12h-12.16a6 6 0 0 0 0 12z"/><path d="m371.45 152.43h-9.35a6 6 0 0 0 0 12h9.35a6 6 0 0 0 0-12z"/><path d="m286.42 164.43h56.58a6 6 0 0 0 0-12h-56.58a6 6 0 0 0 0 12z"/><path d="m376.4 131.29a6 6 0 0 0 -6-6h-52.72a6 6 0 0 0 0 12h52.72a6 6 0 0 0 6-6z"/><path d="m286.42 137.29h12.16a6 6 0 1 0 0-12h-12.16a6 6 0 0 0 0 12z"/><path d="m140.06 233.63h-7.32a6 6 0 0 0 0 12h7.32a6 6 0 0 0 0-12z"/><path d="m202.82 233.63h-39.56a6 6 0 0 0 0 12h39.56a6 6 0 0 0 0-12z"/><path d="m371.26 233.63h-144.87a6 6 0 0 0 0 12h144.87a6 6 0 0 0 0-12z"/><path d="m140.06 256.63h-7.32a6 6 0 0 0 0 12h7.32a6 6 0 0 0 0-12z"/><path d="m202.82 256.63h-39.56a6 6 0 0 0 0 12h39.56a6 6 0 0 0 0-12z"/><path d="m371.26 256.63h-144.87a6 6 0 0 0 0 12h144.87a6 6 0 0 0 0-12z"/><path d="m362.1 110.43h9.35a6 6 0 0 0 0-12h-9.35a6 6 0 0 0 0 12z"/><path d="m286.42 110.43h56.58a6 6 0 0 0 0-12h-56.58a6 6 0 0 0 0 12z"/></svg>