<svg id="Layer_1" height="512" viewBox="0 0 512 512" width="512" xmlns="http://www.w3.org/2000/svg" data-name="Layer 1"><path d="m194.07 459.89a22.385 22.385 0 1 0 -22.39-22.39 22.415 22.415 0 0 0 22.39 22.39zm0-32.77a10.385 10.385 0 1 1 -10.39 10.38 10.4 10.4 0 0 1 10.39-10.38z"/><path d="m97.93 487.63h192.28a36.041 36.041 0 0 0 36-36v-151.14l62.859 22.869a5.994 5.994 0 0 0 7.644-3.466 258.08 258.08 0 0 0 15.326-59.883h4.341a33.7 33.7 0 0 0 0-67.39h-4.343a258.5 258.5 0 0 0 -15.324-59.873 6 6 0 0 0 -7.644-3.466l-62.859 22.864v-91.775a36.041 36.041 0 0 0 -36-36h-192.28a36.041 36.041 0 0 0 -36 36v391.26a36.041 36.041 0 0 0 36 36zm315.406-283.01h3.044a21.7 21.7 0 0 1 0 43.39h-3.044c.61-7.211.924-14.48.924-21.69s-.314-14.489-.924-21.7zm-25.748-62.03a245.915 245.915 0 0 1 13.179 110.728v.007a245.944 245.944 0 0 1 -13.178 56.725l-20.389-7.416a260.074 260.074 0 0 0 0-152.63zm-31.679 11.522a248.014 248.014 0 0 1 0 144.413l-88.059-32.037v-80.346zm-281.979-61.202h41.853a6 6 0 0 0 0-12h-41.853v-20.54a24.027 24.027 0 0 1 24-24h192.28a24.027 24.027 0 0 1 24 24v20.54h-157.4a6 6 0 0 0 0 12h157.4v63.6l-53.417 19.43h-55.243a29.838 29.838 0 0 0 -29.78 29.68v41.427a29.841 29.841 0 0 0 28.58 29.612v80.421a6 6 0 0 0 7.5 5.809l45.75-11.84a6 6 0 0 0 4.5-5.809v-68.074l52.11 18.958v98.256h-240.28zm162.23 189.17a6 6 0 0 0 -6 6v40.37a6 6 0 0 0 6 6h13.94v6.15l-33.75 8.735v-72.645h33.75v5.39zm13.94 12v28.37h-7.94v-28.37zm-44.55-29.39a17.821 17.821 0 0 1 -16.678-11.67h66.978v11.67zm-17.78-23.67v-8.7h68.08v8.7zm0-20.7v-8.7h68.08v8.7zm1.1-20.7a17.81 17.81 0 0 1 16.679-11.68h50.3v11.68zm-114.94 206.76h240.28v45.25a24.027 24.027 0 0 1 -24 24h-192.28a24.027 24.027 0 0 1 -24-24z"/><path d="m97.3 112.04a6 6 0 0 0 -6 6v6.29a6 6 0 0 0 12 0v-6.29a6 6 0 0 0 -6-6z"/><path d="m97.3 137.33a6 6 0 0 0 -6 6v106a6 6 0 0 0 12 0v-106a6 6 0 0 0 -6-6z"/></svg>