<svg id="Layer_1" height="512" viewBox="0 0 512 512" width="512" xmlns="http://www.w3.org/2000/svg" data-name="Layer 1"><path d="m100.24 205.04a6 6 0 0 0 -6 6v6.29a6 6 0 0 0 12 0v-6.29a6 6 0 0 0 -6-6z"/><path d="m100.24 230.33a6 6 0 0 0 -6 6v78a6 6 0 0 0 12 0v-78a6 6 0 0 0 -6-6z"/><path d="m496.929 373.948h-12.489v-206.094a52.263 52.263 0 0 0 6.972-9.063 6.007 6.007 0 0 0 .847-3.074v-20.374h-.02a5.984 5.984 0 0 0 -2.992-5.2l-4.807-2.76v-23.363a36.04 36.04 0 0 0 -36-36h-384.88a36.04 36.04 0 0 0 -36 36v23.5l-4.693 2.561a5.994 5.994 0 0 0 -3.106 5.644h-.02v20a6.053 6.053 0 0 0 .773 2.944c.033.06.068.121.1.18a51.978 51.978 0 0 0 6.942 9.022v206.077h-12.485a6 6 0 0 0 -6 6v28.03a35.988 35.988 0 0 0 36 36h421.858a35.988 35.988 0 0 0 36-36v-28.028a6 6 0 0 0 -6-6zm-457.369-269.928a24.027 24.027 0 0 1 24-24h384.88a24.027 24.027 0 0 1 24 24v16.469l-34.427-19.77a6.006 6.006 0 0 0 -2.989-.8h-355.376a6 6 0 0 0 -2.875.734l-37.213 20.313zm424.2 25.323h-414.5l31.919-17.421h352.245zm-432.02 12h448.519v12.634c-8.187 12.342-23.03 19.66-40.059 19.66-17.638 0-32.931-7.852-40.9-20.994a6 6 0 0 0 -5.136-2.918h-.022a6.017 6.017 0 0 0 -5.135 2.9c-7.981 13.154-23.275 21.006-40.914 21.006s-32.933-7.852-40.912-21l-.061-.1a6 6 0 0 0 -5.083-2.8h-.049a6.012 6.012 0 0 0 -5.086 2.894c-7.979 13.154-23.275 21.007-40.915 21.007s-32.932-7.854-40.912-21.007c-.035-.058-.08-.128-.116-.184a6 6 0 0 0 -10.151.171c-7.981 13.155-23.276 21.009-40.916 21.009s-32.935-7.854-40.914-21.009a6.007 6.007 0 0 0 -10.268.012c-7.978 13.154-23.273 21.007-40.914 21.007-17.021 0-31.861-7.314-40.05-19.647zm41.87 222.277h364.78a6 6 0 0 0 6-6v-172.109a62.993 62.993 0 0 0 28.05-8.245v196.682h-140.34a6.011 6.011 0 0 0 -5.372 3.32l-6.057 12.123-2.851 5.709a6.292 6.292 0 0 1 -5.656 3.5h-112.328a6.29 6.29 0 0 1 -5.656-3.5l-3.877-7.754-5.035-10.078a6.009 6.009 0 0 0 -5.372-3.32h-140.336v-196.683a63.063 63.063 0 0 0 28.05 8.235v172.12a6 6 0 0 0 6 6zm239.366-19.438a6 6 0 0 0 7.577-3.488 190.721 190.721 0 0 0 11.123-42.824h1.774a26.28 26.28 0 1 0 0-52.56h-1.774a190.709 190.709 0 0 0 -11.124-42.824 6 6 0 0 0 -7.578-3.486l-97.214 34.1h-25.13a38.288 38.288 0 0 0 -27.23 11.274 38.972 38.972 0 0 0 -8.782 13.6 38.618 38.618 0 0 0 0 27.224 38.758 38.758 0 0 0 23.912 22.935v43.487h-98.92v-166.449c15.4-1.736 28.949-8.575 38.231-19.3 10.811 12.5 27.436 19.744 46.046 19.744 18.6 0 35.231-7.25 46.044-19.74 10.81 12.5 27.439 19.751 46.05 19.751 18.594 0 35.21-7.239 46.046-19.756 10.812 12.5 27.443 19.758 46.058 19.758 18.611 0 35.241-7.252 46.053-19.749 9.272 10.724 22.833 17.571 38.249 19.307v166.434h-211.947v-39.889zm-90.2-44.346v-56.482l65.241-22.884a180.094 180.094 0 0 1 0 102.246zm76.574-83.342 12.028-4.219a178.727 178.727 0 0 1 9.044 39.69 179.839 179.839 0 0 1 0 39.25 178.742 178.742 0 0 1 -9.045 39.693l-12.027-4.218a192.126 192.126 0 0 0 .004-110.196zm33.6 40.816h.5a14.28 14.28 0 1 1 0 28.56h-.5c.355-4.755.548-9.535.548-14.28s-.191-9.524-.546-14.28zm-142.32 40.78a26.183 26.183 0 0 1 -4.955-.465 26.56 26.56 0 0 1 -15.075-8.735h40.18v9.2zm17.81 12v41.53h-17.91v-41.532h.1zm-43.752-33.2a25.9 25.9 0 0 1 0-10.6h46.092v10.6zm5.887-22.6c.423-.493.858-.975 1.315-1.434a26.352 26.352 0 0 1 18.74-7.756h20.15v9.19zm320.354 153.693a23.988 23.988 0 0 1 -24 24h-421.859a23.988 23.988 0 0 1 -24-24v-22.033h155.119l4.032 8.063 3.222 6.451a18.237 18.237 0 0 0 16.4 10.136h112.317a18.238 18.238 0 0 0 16.4-10.138l3.3-6.6 3.958-7.916h155.111z"/></svg>